# xmcd CD database file
#
# Track frame offsets:
#	150
#	25280
#	46802
#	59317
#	79062
#	94812
#	106235
#	124307
#	137492
#	148842
#
# Disc length: 2194 seconds
#
# Revision: 0
# Processed by: cddbd v1.5.1PL2 Copyright (c) Steve Scherf et al.
# Submitted via: CDex 1.51
#
DISCID=8608900a
DTITLE=Various Artist - Brel , Québec
DYEAR=1993
DGENRE=Québécois
TTITLE0=Nanette Workman  -  ne me quitte pas
TTITLE1=Paparazzi  -  je ne sais pas
TTITLE2=Gildor Roy  -  comment tuer l'amant d'sa femme
TTITLE3=Sylvie Legault  -  quand on a que l'amour
TTITLE4=Les Pois Z'ont rouges  -  les bonbons
TTITLE5=Dédé Traké  -  les bourgeois
TTITLE6=French B.  -  ces gens là
TTITLE7=Jean-Louis Millette  -  la chanson des vieux amants
TTITLE8=Sylvie Tremblay  -  la quête
TTITLE9=France Castel  -  les désespérés
EXTD=YEAR: 1993
EXTT0=
EXTT1=
EXTT2=
EXTT3=
EXTT4=
EXTT5=
EXTT6=
EXTT7=
EXTT8=
EXTT9=
PLAYORDER=
